/* XPM */
static char *_c0610035e52489dc599cbedbb572876[] = {
/* columns rows colors chars-per-pixel */
"32 32 164 2 ",
"   c #010101",
".  c #090000",
"X  c #150202",
"o  c #1A0202",
"O  c #240202",
"+  c #2B0303",
"@  c #200D0D",
"#  c #2C0A0A",
"$  c #340303",
"%  c #3C0303",
"&  c #350B0B",
"*  c #3C0C0C",
"=  c #351212",
"-  c #3A1818",
";  c #430404",
":  c #4C0505",
">  c #420B0B",
",  c #4D0C0C",
"<  c #530505",
"1  c #5B0606",
"2  c #510909",
"3  c #5C0C0C",
"4  c #431A1A",
"5  c #481919",
"6  c #561313",
"7  c #5C1010",
"8  c #541818",
"9  c #5B1818",
"0  c #630606",
"q  c #6C0606",
"w  c #650C0C",
"e  c #6E0808",
"r  c #730303",
"t  c #7A0505",
"y  c #740909",
"u  c #7A0808",
"i  c #631616",
"p  c #6B1616",
"a  c #671D1D",
"s  c #681C1C",
"d  c #751717",
"f  c #781717",
"g  c #781D1D",
"h  c #442525",
"j  c #4A2727",
"k  c #4B2F2F",
"l  c #502C2C",
"z  c #583636",
"x  c #513F3F",
"c  c #622121",
"v  c #682525",
"b  c #642D2D",
"n  c #6C2A2A",
"m  c #712424",
"M  c #742C2C",
"N  c #7A3535",
"B  c #723C3C",
"V  c #7F3F3F",
"C  c #674444",
"Z  c #6E4444",
"A  c #744747",
"S  c #6B5151",
"D  c #635959",
"F  c #7E5353",
"G  c #646363",
"H  c #696767",
"J  c #6C6D6D",
"K  c #840404",
"L  c #8B0202",
"P  c #830909",
"I  c #8C0A0A",
"U  c #950101",
"Y  c #9C0202",
"T  c #930909",
"R  c #9C0A0A",
"E  c #841212",
"W  c #8A1313",
"Q  c #8B1F1F",
"!  c #9E1212",
"~  c #A40A0A",
"^  c #AB0B0B",
"/  c #B30B0B",
"(  c #BB0B0B",
")  c #A91818",
"_  c #8C3E3E",
"`  c #9E3333",
"'  c #903D3D",
"]  c #BD2E2E",
"[  c #B63333",
"{  c #C40C0C",
"}  c #CB0D0D",
"|  c #D30D0D",
" . c #DB0E0E",
".. c #D21212",
"X. c #DC1010",
"o. c #DD1818",
"O. c #E40E0E",
"+. c #EE0F0F",
"@. c #F50F0F",
"#. c #E41212",
"$. c #EC1313",
"%. c #F31212",
"&. c #F91010",
"*. c #F41F1F",
"=. c #C73737",
"-. c #834444",
";. c #844949",
":. c #8A4D4D",
">. c #895353",
",. c #935757",
"<. c #9C5353",
"1. c #915B5B",
"2. c #B64848",
"3. c #AD5858",
"4. c #826161",
"5. c #8A6060",
"6. c #8E6F6F",
"7. c #936D6D",
"8. c #867D7D",
"9. c #917D7D",
"0. c #9E7C7C",
"q. c #AB6464",
"w. c #AB6B6B",
"e. c #B56A6A",
"r. c #A37676",
"t. c #C56767",
"y. c #799B9B",
"u. c #939393",
"i. c #989D9D",
"p. c #A28585",
"a. c #AE9292",
"s. c #BD9595",
"d. c #BA9F9F",
"f. c #9DA1A1",
"g. c #B8A6A6",
"h. c #B4AEAE",
"j. c #BCADAD",
"k. c #B4B6B6",
"l. c #C39393",
"z. c #C89999",
"x. c #C6A9A9",
"c. c #CBAFAF",
"v. c #CFB3B3",
"b. c #D3B3B3",
"n. c #D5BBBB",
"m. c #BDD8D8",
"M. c #D0C7C7",
"N. c #DBC6C6",
"B. c #DECECE",
"V. c #C0D8D8",
"C. c #DDDFDF",
"Z. c #E4CDCD",
"A. c #E5D6D6",
"S. c #E9D5D5",
"D. c #E1DADA",
"F. c #CEECEC",
"G. c #DAE2E2",
"H. c #E5E1E1",
"J. c #EDE5E5",
"K. c #FBE8E8",
"L. c #F3F0F0",
"P. c #FAF5F5",
"I. c #FFFFFF",
"U. c None",
/* pixels */
"U.U.U.U.U.U.U.U.U.U.U.U.U.U.U.U.U.U.U.U.U.U.U.U.U.U.U.U.U.U.U.U.",
"U.U.U.U.U.U.U.U.U.U.U.U.U.U.% : 2 1 r u e U.U.U.U.U.U.U.U.U.U.U.",
"U.U.U.~ T u u P e e e 1 0 e u e q e + 0 e 1 < 1 U.U.U.U.U.U.U.U.",
"U.O : 1 : < : < e P P u u u u u u ; O > e e 0 1 2 1 < U.U.U.U.U.",
"U.U.% 0 e 1 < % $ + 2 1 1 1 : : % X o + ; 0 1 0 1 1 q t P R U.U.",
"U.U.% : R { I P P 1 . o + + + $ % ; ; ; 1 0 u T ^ { X.#.#.$.%.U.",
"U.U.1 0 q } $.{ ( } R u r e e e e e I R ~ (  .+.#.O.#.X.X.#.X.U.",
"U.U.0 P q / | $./ < q 0 2 1 1 0 e u u K R ~ / | } O.&.%.| ..O.U.",
"U.U.: I 0 I o.+.r X $ ; : < < 2 0 r t E ! / } | { / T P | X.U.U.",
"U.U.: u r 5 B *.L + % : < 1 0 q y f 0 n ;.9 % $ o     X O.| U.U.",
"U.U.% P r s y.=.U + > : ; ; % + = x D u.G @ O ; < .   :  .{ U.U.",
"U.U.; u t M m.] U + % 1 + X o O O p.I.D.c Q U ( ~ .   1  .( U.U.",
"U.U.; r r ;.F.[ U O ; : ; ; < p 7 B.I.I.q.W R / I     1 } ^ U.U.",
"U.U.U.0 q >.V.2.U + ; : 1 0 0 w r.Z.n.I.b.d W Y t     0 ( T U.U.",
"U.U.U.r r 1.k.3.K $ ; ; : 1 i c C.,.N I.P._ W Y q     e / ~ U.U.",
"U.U.U.r t 5.i.e.t $ % ; 1 1 2 r.D.a M J.I.;.u ) 0     e ~ T U.U.",
"U.U.U.0 u d.C.w.0 $ % ; 1 7 8 A.d.< 1 v.I.s._ ` n     u ~ I U.U.",
"U.U.U.1 W h.i.b.u $ ; ; < 7 >.P.V r.x.c.I.K.l.M.A     T ^ R U.U.",
"U.U.U.r p J H N.g $ % % : : 0.I.S.n.:.-.I.P.<.t.A     I ^ U.U.U.",
"U.U.U.% & l 8.j.0 % % % , B D.L.7.i y ' I.I.z.U =   . ~ ^ U.U.U.",
"U.U.U.% % % C 6.t % ; % 6 A I.S.< E W m g.I.4.* .   O { } U.U.U.",
"U.U.U.U.1 ; * b E ; $ % i v a.p.8 % $ j z S k * .   $ | | U.U.U.",
"U.U.U.U.< 0 ; 2 T ; $ : ; h h 5 = O O # - & > ; $   +  .| U.U.U.",
"U.U.U.U.U.t 1 ; R ; $ < $ o # + + $ $ % % $ $ % 1 u / X...U.U.U.",
"U.U.U.U.U.U.R 1 ~ 1 + : $ O + $ % ; ; % ; q T / { #.%...#.U.U.U.",
"U.U.U.U.U.U.( T ^ 1 + : : $ ; * ; 2 e r T (  .| | X.#.$.U.U.U.U.",
"U.U.U.U.U.U.U.} } : $ : : % : 1 0 e I I R ( | O.U.U.U.U.U.U.U.U.",
"U.U.U.U.U.U.U.U...0 O ; : 2 1 0 0 e I R U.U.U.U.U.U.U.U.U.U.U.U.",
"U.U.U.U.U.U.U.U.%.1 O > : : 1 e U.U.U.U.U.U.U.U.U.U.U.U.U.U.U.U.",
"U.U.U.U.U.U.U.U.U.e O : 2 U.U.U.U.U.U.U.U.U.U.U.U.U.U.U.U.U.U.U.",
"U.U.U.U.U.U.U.U.U.U.U.U.U.U.U.U.U.U.U.U.U.U.U.U.U.U.U.U.U.U.U.U.",
"U.U.U.U.U.U.U.U.U.U.U.U.U.U.U.U.U.U.U.U.U.U.U.U.U.U.U.U.U.U.U.U."
};
