/* XPM */
static char *_80aec7874ab4a17ec36fa10b59152bf[] = {
/* columns rows colors chars-per-pixel */
"64 64 256 2 ",
"   c #000000",
".  c #0C0101",
"X  c #010A0A",
"o  c #130101",
"O  c #1C0202",
"+  c #1F0D0D",
"@  c #051010",
"#  c #0D1818",
"$  c #0D1515",
"%  c #171010",
"&  c #101B1B",
"*  c #240303",
"=  c #2B0303",
"-  c #210F0F",
";  c #2A0D0D",
":  c #340404",
">  c #3B0404",
",  c #330D0D",
"<  c #3B0B0B",
"1  c #2C1212",
"2  c #3D1414",
"3  c #331C1C",
"4  c #391919",
"5  c #352020",
"6  c #392727",
"7  c #3C2A2A",
"8  c #3F3030",
"9  c #440505",
"0  c #4B0505",
"q  c #440B0B",
"w  c #4C0C0C",
"e  c #530606",
"r  c #5B0606",
"t  c #530B0B",
"y  c #5B0B0B",
"u  c #451111",
"i  c #4D1414",
"p  c #441C1C",
"a  c #4B1C1C",
"s  c #541414",
"d  c #5B1313",
"f  c #531B1B",
"g  c #5B1D1D",
"h  c #630707",
"j  c #6B0606",
"k  c #640909",
"l  c #6C0909",
"z  c #730707",
"x  c #7A0606",
"c  c #740808",
"v  c #7C0909",
"b  c #631515",
"n  c #6A1515",
"m  c #621B1B",
"M  c #6C1A1A",
"N  c #741717",
"B  c #7C1414",
"V  c #721D1D",
"C  c #7B1A1A",
"Z  c #442222",
"A  c #4D2222",
"S  c #442B2B",
"D  c #4B2C2C",
"F  c #552323",
"G  c #5B2424",
"H  c #522B2B",
"J  c #5A2C2C",
"K  c #4D3535",
"L  c #4B3A3A",
"P  c #543535",
"I  c #5B3434",
"U  c #553A3A",
"Y  c #5C3A3A",
"T  c #652424",
"R  c #6B2424",
"E  c #632B2B",
"W  c #6C2E2E",
"Q  c #742626",
"!  c #7D2424",
"~  c #742B2B",
"^  c #7B2B2B",
"/  c #653434",
"(  c #6D3333",
")  c #633A3A",
"_  c #6C3D3D",
"`  c #723535",
"'  c #7B3333",
"]  c #733D3D",
"[  c #7C3A3A",
"{  c #584040",
"}  c #5C4848",
"|  c #664141",
" . c #6E4242",
".. c #634C4C",
"X. c #6D4B4B",
"o. c #744444",
"O. c #7C4343",
"+. c #7A4C4C",
"@. c #714C4C",
"#. c #6C5454",
"$. c #765454",
"%. c #7E5050",
"&. c #735B5B",
"*. c #7C5C5C",
"=. c #736060",
"-. c #786D6D",
";. c #830606",
":. c #8B0707",
">. c #840909",
",. c #8C0909",
"<. c #940606",
"1. c #940A0A",
"2. c #9C0A0A",
"3. c #990606",
"4. c #831414",
"5. c #8C1212",
"6. c #851C1C",
"7. c #8A1A1A",
"8. c #901212",
"9. c #9B1C1C",
"0. c #9C1313",
"q. c #A70707",
"w. c #AB0606",
"e. c #A40A0A",
"r. c #AB0B0B",
"t. c #B30B0B",
"y. c #BC0B0B",
"u. c #AC1A1A",
"i. c #B21414",
"p. c #BB1E1E",
"a. c #842424",
"s. c #892525",
"d. c #822C2C",
"f. c #8A2C2C",
"g. c #932222",
"h. c #9C2323",
"j. c #813333",
"k. c #8A3333",
"l. c #843C3C",
"z. c #8C3C3C",
"x. c #943333",
"c. c #993636",
"v. c #943939",
"b. c #9A3C3C",
"n. c #A62828",
"m. c #B82121",
"M. c #A33535",
"N. c #A33C3C",
"B. c #AD3636",
"V. c #B23C3C",
"C. c #BC3939",
"Z. c #C40C0C",
"A. c #CD0D0D",
"S. c #D30D0D",
"D. c #DB0E0E",
"F. c #C31212",
"G. c #CA1010",
"H. c #D41111",
"J. c #DB1212",
"K. c #E40E0E",
"L. c #EB0E0E",
"P. c #F50F0F",
"I. c #FC0E0E",
"U. c #E31111",
"Y. c #EC1111",
"T. c #F41212",
"R. c #FE1313",
"E. c #F41818",
"W. c #FF1919",
"Q. c #CB2222",
"!. c #DE2828",
"~. c #CD3C3C",
"^. c #FF2222",
"/. c #834343",
"(. c #8B4444",
"). c #8B4D4D",
"_. c #9C4242",
"`. c #924848",
"'. c #8F5252",
"]. c #855C5C",
"[. c #8C5C5C",
"{. c #995555",
"}. c #945F5F",
"|. c #995A5A",
" X c #BF4747",
".X c #8E6B6B",
"XX c #846868",
"oX c #9A6060",
"OX c #847878",
"+X c #8E7F7F",
"@X c #8B7373",
"#X c #957474",
"$X c #927D7D",
"%X c #9C7878",
"&X c #A66767",
"*X c #AC6A6A",
"=X c #A06D6D",
"-X c #B26868",
";X c #A37575",
":X c #A37B7B",
">X c #A87C7C",
",X c #B37676",
"<X c #8E8181",
"1X c #978585",
"2X c #9D8383",
"3X c #9C9393",
"4X c #A28484",
"5X c #AB8989",
"6X c #B48888",
"7X c #AE9696",
"8X c #A89A9A",
"9X c #B79595",
"0X c #BC9C9C",
"qX c #AFA7A7",
"wX c #B2A3A3",
"eX c #BBA3A3",
"rX c #B7ADAD",
"tX c #BFB2B2",
"yX c gray72",
"uX c #B4B2B2",
"iX c #CA8F8F",
"pX c #CF9E9E",
"aX c #C09C9C",
"sX c #DA9D9D",
"dX c #C3A9A9",
"fX c #D3A2A2",
"gX c #C4B4B4",
"hX c #CDB6B6",
"jX c #C4BDBD",
"kX c #CEBBBB",
"lX c #D1BFBF",
"zX c #D8B3B3",
"xX c #C3C6C6",
"cX c #CCC4C4",
"vX c #D2C2C2",
"bX c #DDC5C5",
"nX c #D4CBCB",
"mX c #D5D4D4",
"MX c #DCD5D5",
"NX c #DCDDDD",
"BX c #E3CACA",
"VX c #E1C4C4",
"CX c #E6D8D8",
"ZX c #EFDFDF",
"AX c #E4D3D3",
"SX c #E4E3E3",
"DX c #EBE3E3",
"FX c #E3ECEC",
"GX c #EEEAEA",
"HX c #F4EDED",
"JX c #EAF3F3",
"KX c #F6F4F4",
"LX c #FCF5F5",
"PX c #FFFFFF",
"IX c #F3FBFB",
"UX c None",
/* pixels */
"UXUXUXUXUXUXUXUXUXUXUXUXUXUXUXUXUXUXUXUXUXUXUXUXUXUXUXUXUXUXUXUXUXUXUXUXUXUXUXUXUXUXUXUXUXUXUXUXUXUXUXUXUXUXUXUXUXUXUXUXUXUXUXUX",
"UXUXUXUXUXUXUXUXUXUXUXUXUXUXUXUXUXUXUXUXUXUXUXUXUXUXUXUXUXUXUXUXUXUXUXUXUXUXUXUXUXUXUXUXUXUXUXUXUXUXUXUXUXUXUXUXUXUXUXUXUXUXUXUX",
"UXUXUXUXUXUXUXUXUXUXUXUXUXUXUXUXUXUXUXUXUXUXUXUXUXUXUXUXUXUXUXUXUXUX: h >.j 2.,.UXUXUXUXUXUXUXUXUXUXUXUXUXUXUXUXUXUXUXUXUXUXUXUX",
"UXUXUXUXUXUXUXUXUXUXUXUXUXUXUXUXUXUXUXUXUXUXUX0 r : 0 0 9 e 0 9 h e l k > j e h c v v UXUXUXUXUXUXUXUXUXUXUXUXUXUXUXUXUXUXUXUXUX",
"UXUXUXUXUXUXUXUXUXUXUXUX>.r.r h l 9 e k 0 0 k > r j 0 c l h v r c v h 1.> : >.j 0 0 r j h h UXUXUXUXUXUXUXUXUXUXUXUXUXUXUXUXUXUX",
"UXUXUXUXr.t.v h 2.v e >.h r 2.e j 1.e v ,.k 1.v l 2.c >.,.l ,.j c j r r O * h 1.v r r 0 9 e k 0 r UXUXUXUXUXUXUXUXUXUXUXUXUXUXUX",
"UXUXUXUXO e >.e > j j e e r 2.>.v r.v >.,.j >.k r x e r r e k e r r t > * = O e >.>.v j r e e 0 e e r r UXUXUXUXUXUXUXUXUXUXUXUX",
"UXUXUXUX0 > 0 k l 9 0 h r = : > e v e k k r l r t l e h j r v j v >.e > : 9 : = 0 r k v >.c k e r e e k r h r UXUXUXUXUXUXUXUXUX",
"UXUXUXUX: k k 0 e c h 9 r c e * * 0 : 0 c k >.v v 2.x ,.>.l ,.k h r = * O > r r : r r r r j j v h r e j j e c >.k ,.UXUXUXUXUXUX",
"UXUXUXUX: > r ,.x r c ,.0 0 >.c 9 > : 9 r 9 r r 0 r 0 9 9 : : : * o = O     * : > 9 v k : h >.e j >.j v >.:.1.x q.2.>.S.G.UXUXUX",
"UXUXUXUXr 0 : r e.t.v c r.v 0 c 2.v > . o * o o O O o   O O . O > = = > 0 > * 0 c 0 r c l h r x x j 2.r.,.y.A.r.S.T.F.J.E.R.UXUX",
"UXUXUXUX: 0 r 9 e y.L.r.:.y.t.j j e.r.e o . > * O > e > : 0 c 0 9 c l r k c c r e c h e ;.2.>.e.K.Z.t.R.Y.G.W.R.Y.W.Y.Y.W.UXUXUX",
"UXUXUXUX> 0 r c r h A.R.G.2.y.K.e.z 1.A.e.> r 2.v r c 1.>.k h v c 9 e x r e x 1.c x A.A.q.I.I.A.R.I.D.R.R.K.W.U.H.W.A.A.D.UXUXUX",
"UXUXUXUX: 1.,.r :.v h Z.R.T.r.e.L.K.2.2.S.D.1.l 2.,.0 0 c j 9 0 l >.e k r.,.c Z.t.1.K.D.t.I.P.A.R.D.Z.Y.y.r.D.t.r.H.r.Z.J.UXUXUX",
"UXUXUXUX= j ,.r e r.w.x t.R.W.G.2.Z.t.j r x l 0 : 0 j e > j v 0 c 1.l c r.>.v Z.2.;.A.r.;.y.r.<.Z.2.2.D.r.t.Y.A.D.W.D.W.W.UXUXUX",
"UXUXUXUX0 e 1.j r x Z.K.3.2.P.W.U.= o 9 > * 9 r > e l r e c v e c ,.k j ,.h r :.z r 2.,.>.Z.r.t.Y.A.S.R.K.L.R.L.P.R.Z.Y.K.UXUXUX",
"UXUXUXUX= c t.>.v c h D.W.t.<.Y.R.> : r t 9 r k 9 e j e 0 r r > e j 0 r x h r 2.,.>.S.y.e.I.D.Z.R.K.K.R.K.K.P.r.Z.A.1.y.A.UXUXUX",
"UXUXUXUX* 0 >.h e x 9 d !.^.S.e.G.0 : r > = e 0 : 9 t > > r e 9 h B j c e.4.4.p.g.7.H.y.2.I.A.e.D.2.v x 9 = . : K.K.Z.R.R.UXUXUX",
"UXUXUXUX: e 1.v z 2.;.Z _ ~.^.L.e.= = 9 : * 0 0 : 9 l 0 9 c v r z ,.l B 9.a.' M.k.' 9.B r h 9 > O O           r R.I.S.R.L.UXUXUX",
"UXUXUXUXUXe e.v h x h I U H C.I.P.9 = r > > r r 9 e c e 0 c c 0 l >.R W ' _ ) A K { 6 - * o . : * = .         e K.t.1.y.y.UXUXUX",
"UXUXUXUXUX: v j 0 z j S ].<X .t.I.r = r 9 > r r > r k k 9 r 0 = < a L K 3 1 1 yX3XZ D 1 : > > 0 9 9 o         h U.w.t.P.S.UXUXUX",
"UXUXUXUXUX9 1.1.x 3.,.i cXFXf.i.w.e * t 9 = > 0 : = : * * * O O 1 D 8 #.8X+XgXGX=.J J q r r r r e k O         2.W.D.D.I.UXUXUXUX",
"UXUXUXUXUX> >.v e j n p mXxXd W.S.> O 9 > = 9 j : . * = O = = = p Y 4 wXPXPXPX#X< o.E y v j x t.2.,.o         ,.D.:.1.t.UXUXUXUX",
"UXUXUXUXUX> k v e j 6.A MXMXG F.I.j * r 0 < r j > O : : : > 9 < G / ) GXPXPXPXnXm b.k.7.A.e.q.Y.y.1.          v A.1.e.D.UXUXUXUX",
"UXUXUXUXUX> 1.e.x ;.6.) PXSX~ 4.S.x * r 0 : 9 r : = 9 9 = 9 e i ( R %.PXPXPXPXPX,Xn.b.g.G.<.,.e.v h           t.I.y.G.D.UXUXUXUX",
"UXUXUXUXUX= h >.e r M *.SXNX .H.w.9 O 9 : = > e > : r 0 9 h l T (.C 0XPXPXPXPXPXbXC l.~ 5.j v 1.,.l           e.y.x 1.1.UXUXUXUX",
"UXUXUXUXUX: r ,.h B 7.4XrXNX*.F.I.r o 0 9 > 0 h e 0 c c r ;.6.` ^ `.PXSXMXPXPXPXPX{.~ ' u.,.r.A.t.v           ,.e.c r.w.UXUXUXUX",
"UXUXUXUXUX* >.r.j l V 7X2XMX.Xk L.2.O e r 0 0 h r e c k 0 b R _ f lXPX).l.PXPXPXPXsX6.c.m.,.,.1.;.0         o Z.D.e.A.y.UXUXUXUX",
"UXUXUXUXUX> 0 v 0 k ^ eX&.nX@XB <.j = 9 0 > > 9 > > e 0 9 b ` G [.PXMXC C bXPXPXPXVXR [ s.k x ,.>.0         * t.2.c 1.c UXUXUXUX",
"UXUXUXUXUX* h e.x B c.hXo.vX1Xi.A.0 O > > = 9 e 0 9 j h t s.(.g BXPX[.Q R XXPXPXPXKXO.' M.4.t.Z.r.r         * 1.>.c e.2.UXUXUXUX",
"UXUXUXUXUX* e 1.r d ).jXE bX3Xk D.:.O e e : 0 h k r c l f ' E $.PXvXa /.` ` HXPXPXPX&Xf.B.B 8.>.c >         : S.r.e.G.w.UXUXUXUX",
"UXUXUXUXUX: 9 >.h k *XjXO gXqXt <.;.* e 0 : 9 0 e 0 e t A ] s rXPX;Xm _.`.M zXPXPXPX4Xm z.W s.6.7.q         9 Z.>.c ,.UXUXUXUXUX",
"UXUXUXUXUXUXh w.,.M *XjX$.SXwX9.2.9 = 9 > * > 0 e 0 r b / ^ (.PXPX(.W (.O.G ;XPXPXPXtXl c.z.C.V.M.a X       > 2.c c e.UXUXUXUXUX",
"UXUXUXUXUXUX: v j s }.PXPXLXwXM Q.j o 9 9 : 9 r j j c V ) M 9XPXkXg o.O.W t d.KXPXPXKX-X_.~ s.^ /.D @       h D.e.r.A.UXUXUXUXUX",
"UXUXUXUXUXUX> :.,.l fXPX} $XIX@.7.<.* 0 r > 9 e 0 0 y E I / GXPX>Xb m d.{.0XBXPXPXPXPXKXZXCXgXoXk.U #       z Z.c x ,.UXUXUXUXUX",
"UXUXUXUXUXUX> 1.>.w gXxX  1XKXiX! e = 9 9 = > 9 > > m W g =XPXPX^ n ;XCXPXKX%XhXPXPXPXzXc.pXPXPXb.D &       r 2.l ,.r.UXUXUXUXUX",
"UXUXUXUXUXUX> v ;.: 3XgXO <XmX9X Xr O > > : > r 0 0 a.l.g dXPXSX:XDXPXHX5X` h ,XPXPXPXLXv.e 6XeX/.S $       1.L.e.Z.t.UXUXUXUXUX",
"UXUXUXUXUXUX9 r.j * 1XqX* OXIX$.v.0.* 0 e > 0 r 0 u W / A SXPXPXPXPX6Xs.N [ c.`.IXPXPXPXvX~ g.g._.7 X       2.t.x ,.,.UXUXUXUXUX",
"UXUXUXUXUXUX> 0 = , ..+.5 -.IX@.^ n : 0 0 = : 9 < p ] g .XPXPXPXBX/.d l.] _ j.O.JXPXPXPXSXN.~.V.f.%         >.e.v Z.A.UXUXUXUXUX",
"UXUXUXUXUXUX: O > q H Y H =.JX%.n.r O : 9 > : 0 t E ~ |.PXPXPXvXd G _ ' Q ^ N.k.GXPXPXPXnX^ c.^ s         . D.P.t.S.y.UXUXUXUXUX",
"UXUXUXUXUXUX9 9 : 0 a D E  .xX} 8.e.* 9 e e 9 r d J G #XPXPXPX5XM /.^ u.8.a.N.M 0XPXPXPXdXf ( i >         * Z.r.v e.Z.UXUXUXUXUX",
"UXUXUXUXUXUX: e 0 > e q i ` ..| N x 9 9 e > > 9 w J ] T gXPXPX:Xa.j.b ;.h m l.Y J lXPXPXX.H H 1 O         * y.w.y.R.UXUXUXUXUXUX",
"UXUXUXUXUXUXUX> 0 9 9 e = F ) ] i.r = : > * : 9 y R z.R [.PXSX/ ` T 0 0 9 s E ) H H XX#.S U A : *         e R.L.y.A.UXUXUXUXUXUX",
"UXUXUXUXUXUXUXr 9 r 9 0 9 , E J ,.r.= : e > 9 r k s W ] ) 2X+.H ) a : 9 = = 2 S U U Z H Y F i > O         9 D.1.2.A.UXUXUXUXUXUX",
"UXUXUXUXUXUXUXUX0 r k 9 k 0 < M c 2.t > r : > 0 9 < A / Y a J U p ; O : * = q p F J H J 3 1 : : > =       e Y.S.L.W.UXUXUXUXUXUX",
"UXUXUXUXUXUXUXUXUX9 v h > r > 0 Z.j : : > = : 9 0 = 2 Z 8 D S 4 < : = 9 : > > = < - - < < > h r 9 r 9 o   ,.R.Z.t.A.UXUXUXUXUXUX",
"UXUXUXUXUXUXUXUXUXk r ,.0 e r = >.A.: = 0 > 9 j t . = , - 2 < > > : = : O O = * > r > 0 j e : r e = e e * x D.r.A.L.UXUXUXUXUXUX",
"UXUXUXUXUXUXUXUXUXUXh v 2.> e r z t.j : r 9 > 0 > O : > = : : * * * * > : : r r > 0 h > > r : * h l k y.K.D.R.Y.R.U.UXUXUXUXUXUX",
"UXUXUXUXUXUXUXUXUXUXUXk r.1.> e D.e.: : 9 = : 0 9 * = * . * = * > e 9 0 r 0 : e e * 9 e > 0 2.,.y.R.K.R.R.S.D.i.y.H.UXUXUXUXUXUX",
"UXUXUXUXUXUXUXUXUXUXUX1.,.A.j > 1.Y.9 * 0 > > j t . = : = 9 r > = e 0 > 9 r : * r h 0 :.y.t.R.I.D.P.e.S.t.i.D.y.T.W.UXUXUXUXUXUX",
"UXUXUXUXUXUXUXUXUXUXUXUX1.2.S.> v A.>.* r > > e 0 : 9 e 0 : > e : : e 0 > 0 c r x A.r.Y.P.t.D.2.2.A.e.K.D.U.W.K.W.UXUXUXUXUXUXUX",
"UXUXUXUXUXUXUXUXUXUXUXUXUX2.y.e.t.G.> * 9 : = 9 0 9 * = t > = 0 0 9 9 c l l Z.e.e.A.,.e.e.<.A.t.D.W.U.W.Y.UXUXUXUXUXUXUXUXUXUXUX",
"UXUXUXUXUXUXUXUXUXUXUXUXUXD.e.H.w.Y.r o 9 e 9 h h 9 > : 9 0 > > c z k r.1.c 2.j c 2.x y.A.S.R.D.P.P.UXUXUXUXUXUXUXUXUXUXUXUXUXUX",
"UXUXUXUXUXUXUXUXUXUXUXUXUXUXS.r.Z.Z.2.* k 0 : 0 9 : 0 0 > l c e ,.c e v k r ,.z 1.D.w.I.D.Z.UXUXUXUXUXUXUXUXUXUXUXUXUXUXUXUXUXUX",
"UXUXUXUXUXUXUXUXUXUXUXUXUXUXUXG.Z.U.r O 9 : = 0 9 > l h 0 c r 9 k r 0 >.z c G.2.t.K.UXUXUXUXUXUXUXUXUXUXUXUXUXUXUXUXUXUXUXUXUXUX",
"UXUXUXUXUXUXUXUXUXUXUXUXUXUXUXY.t.Y.>.. e > > k r 9 r 0 > r 0 9 c l j r.>.v UXUXUXUXUXUXUXUXUXUXUXUXUXUXUXUXUXUXUXUXUXUXUXUXUXUX",
"UXUXUXUXUXUXUXUXUXUXUXUXUXUXUXUXU.G.r.* k 9 = e > : e 0 9 c c h ,.c h UXUXUXUXUXUXUXUXUXUXUXUXUXUXUXUXUXUXUXUXUXUXUXUXUXUXUXUXUX",
"UXUXUXUXUXUXUXUXUXUXUXUXUXUXUXUXUXT.l O > > = 0 0 > j k 9 c j UXUXUXUXUXUXUXUXUXUXUXUXUXUXUXUXUXUXUXUXUXUXUXUXUXUXUXUXUXUXUXUXUX",
"UXUXUXUXUXUXUXUXUXUXUXUXUXUXUXUXUXW.2.o 0 0 > k e 9 h UXUXUXUXUXUXUXUXUXUXUXUXUXUXUXUXUXUXUXUXUXUXUXUXUXUXUXUXUXUXUXUXUXUXUXUXUX",
"UXUXUXUXUXUXUXUXUXUXUXUXUXUXUXUXUXUXF.* e 0 > UXUXUXUXUXUXUXUXUXUXUXUXUXUXUXUXUXUXUXUXUXUXUXUXUXUXUXUXUXUXUXUXUXUXUXUXUXUXUXUXUX",
"UXUXUXUXUXUXUXUXUXUXUXUXUXUXUXUXUXUXUX* UXUXUXUXUXUXUXUXUXUXUXUXUXUXUXUXUXUXUXUXUXUXUXUXUXUXUXUXUXUXUXUXUXUXUXUXUXUXUXUXUXUXUXUX",
"UXUXUXUXUXUXUXUXUXUXUXUXUXUXUXUXUXUXUXUXUXUXUXUXUXUXUXUXUXUXUXUXUXUXUXUXUXUXUXUXUXUXUXUXUXUXUXUXUXUXUXUXUXUXUXUXUXUXUXUXUXUXUXUX",
"UXUXUXUXUXUXUXUXUXUXUXUXUXUXUXUXUXUXUXUXUXUXUXUXUXUXUXUXUXUXUXUXUXUXUXUXUXUXUXUXUXUXUXUXUXUXUXUXUXUXUXUXUXUXUXUXUXUXUXUXUXUXUXUX",
"UXUXUXUXUXUXUXUXUXUXUXUXUXUXUXUXUXUXUXUXUXUXUXUXUXUXUXUXUXUXUXUXUXUXUXUXUXUXUXUXUXUXUXUXUXUXUXUXUXUXUXUXUXUXUXUXUXUXUXUXUXUXUXUX"
};
