/* XPM */
static char *_981a4d580074e8d8975ae34d1bc5542[] = {
/* columns rows colors chars-per-pixel */
"16 16 166 2 ",
"   c black",
".  c #020000",
"X  c #0C0000",
"o  c #150000",
"O  c #1B0000",
"+  c #1C0000",
"@  c #1E0202",
"#  c #121515",
"$  c #220000",
"%  c #230000",
"&  c #220101",
"*  c #240202",
"=  c #250202",
"-  c #250303",
";  c #280000",
":  c #2A0000",
">  c #2B0000",
",  c #2F0000",
"<  c #2C0303",
"1  c #2C0B0B",
"2  c #300000",
"3  c #310000",
"4  c #300202",
"5  c #300303",
"6  c #340000",
"7  c #330404",
"8  c #340505",
"9  c #360404",
"0  c #3B0000",
"q  c #3A0202",
"w  c #3B0202",
"e  c #3A0303",
"r  c #3F0000",
"t  c #380505",
"y  c #3A0404",
"u  c #3B0404",
"i  c #3B0505",
"p  c #370A0A",
"a  c #272222",
"s  c #400000",
"d  c #410000",
"f  c #460000",
"g  c #440303",
"h  c #480000",
"j  c #4C0000",
"k  c #4D0000",
"l  c #4B0505",
"z  c #4D0505",
"x  c #4E0505",
"c  c #4C0606",
"v  c #510000",
"b  c #530000",
"n  c #530202",
"m  c #540000",
"M  c #500505",
"N  c #530707",
"B  c #550505",
"V  c #540606",
"C  c #550606",
"Z  c #570707",
"A  c #580000",
"S  c #5E0000",
"D  c #580606",
"F  c #590707",
"G  c #5C0606",
"H  c #5D0606",
"J  c #570D0D",
"K  c #600000",
"L  c #610000",
"P  c #630000",
"I  c #660303",
"U  c #600606",
"Y  c #600707",
"T  c #620707",
"R  c #630707",
"E  c #670404",
"W  c #640606",
"Q  c #660707",
"!  c #6E0000",
"~  c #6E0505",
"^  c #6D0606",
"/  c #6E0606",
"(  c #670808",
")  c #6C0808",
"_  c #6C0C0C",
"`  c #730000",
"'  c #700707",
"]  c #720808",
"[  c #730909",
"{  c #740909",
"}  c #710C0C",
"|  c #790808",
" . c #7A0808",
".. c #7E0808",
"X. c #621212",
"o. c #5C2121",
"O. c #542F2F",
"+. c #583232",
"@. c #593434",
"#. c #5D3E3E",
"$. c #692222",
"%. c #693434",
"&. c #733737",
"*. c #7E4444",
"=. c #800000",
"-. c #8B0000",
";. c #820909",
":. c #8B0A0A",
">. c #8F0909",
",. c #920909",
"<. c #A00C0C",
"1. c #A40C0C",
"2. c #A70C0C",
"3. c #AB0A0A",
"4. c #AC0B0B",
"5. c #AE0A0A",
"6. c #A90C0C",
"7. c #B10202",
"8. c #BB0000",
"9. c #B30808",
"0. c #B50808",
"q. c #BC0C0C",
"w. c #BF0F0F",
"e. c #812424",
"r. c #C90C0C",
"t. c #D10C0C",
"y. c #D20D0D",
"u. c #D60D0D",
"i. c #D31E1E",
"p. c #E70C0C",
"a. c #F20F0F",
"s. c #F30F0F",
"d. c #FF0808",
"f. c #E91010",
"g. c #E81212",
"h. c #FF1212",
"j. c #FF1313",
"k. c #F81414",
"l. c #8D4D4D",
"z. c #984F4F",
"x. c #9E4F4F",
"c. c #8C5151",
"v. c #AC5959",
"b. c #966666",
"n. c #AE6D6D",
"m. c #B27474",
"M. c #C37676",
"N. c #AA8686",
"B. c #AF8989",
"V. c #A39999",
"C. c #B19393",
"Z. c #BE9090",
"A. c #B89494",
"S. c #BC9999",
"D. c #AEA8A8",
"F. c #C08B8B",
"G. c #D39696",
"H. c #D79494",
"J. c #CABFBF",
"K. c #BDC6C6",
"L. c #CFC2C2",
"P. c #D7C4C4",
"I. c #F5E9E9",
"U. c #F1EEEE",
"Y. c gray100",
"T. c None",
/* pixels */
"T.T.T.T.T.T.T.Z U ' T.T.T.T.T.T.",
"T.| Q x U ] {  .x 9 Q N i T.T.T.",
"e u ;.' F z N x 8 < H  .>.2.r.T.",
"T.N 9.d.<.Z x Z ~ -.7.s.j.j.g.g.",
"T.I } i.Q % F U L _ e.~ F F y.T.",
"T.S &.m.! 4 9 O #.K.+.I X . u.T.",
"T.v c.G.L 4 h s A.Y.v.8.w % q.T.",
"T.f z.Z.A 6 m l.b.S.P.=.% < 4.T.",
"T.s n.J.J 4 w C.B.N.I.M.a < 4.T.",
"T.s O.D.$.% o.U.F.x.Y.H.# e r.T.",
"T.T.< %.X.< *.L.z h V.+.. Q s.T.",
"T.T.m m U e p 1 % O o < u 2.p.T.",
"T.T.T.4.~ 9 < % f N ` 0.g.k.T.T.",
"T.T.T.T.>.% x Z _ ,.y.T.T.T.T.T.",
"T.T.T.T.2.@ N T.T.T.T.T.T.T.T.T.",
"T.T.T.T.T.T.T.T.T.T.T.T.T.T.T.T."
};
